<?xml version="1.0" encoding="utf-8"?>
<!-- Generator: Adobe Illustrator 18.0.0, SVG Export Plug-In . SVG Version: 6.00 Build 0)  -->
<!DOCTYPE svg PUBLIC "-//W3C//DTD SVG 1.1//EN" "http://www.w3.org/Graphics/SVG/1.1/DTD/svg11.dtd">
<svg version="1.1" id="Calque_1" xmlns="http://www.w3.org/2000/svg" xmlns:xlink="http://www.w3.org/1999/xlink" x="0px" y="0px"
	 viewBox="0 0 595.3 841.9" enable-background="new 0 0 595.3 841.9" xml:space="preserve">
<circle fill="#FFFFFF" stroke="#000000" stroke-width="7.0866" stroke-miterlimit="10" cx="297.6" cy="420.9" r="203.5"/>
<g>
	<g>
		<rect x="270.6" y="471.6" width="54.1" height="6.8"/>
	</g>
	<g>
		<path fill="none" stroke="#000000" stroke-width="16" stroke-miterlimit="10" d="M297.6,475"/>
	</g>
	<g>
		<g>
			<path d="M324.7,496.2h-54.2V449c-1.3-1-2.6-2-3.8-3c-6-4.7-11.1-8.7-14.8-15.9c-3.8-7.6-5.5-17.8-5.5-33.3
				c0-28.2,22.9-51.2,51.2-51.2s51.2,22.9,51.2,51.2c0,15.4-1.7,25.7-5.5,33.3c-3.6,7.2-8.8,11.2-14.8,15.9c-1.2,1-2.5,1.9-3.8,3
				V496.2z M276.6,490.2h42.1v-44l1.1-0.9c1.7-1.4,3.4-2.7,5-4c11.2-8.8,18-14,18-44.4c0-24.9-20.2-45.1-45.1-45.1
				s-45.1,20.2-45.1,45.1c0,30.3,6.8,35.6,18,44.4c1.6,1.2,3.3,2.5,5,4l1.1,0.9V490.2z"/>
		</g>
		<g>
			<path d="M297.6,411.9c-8.3,0-15-6.7-15-15c0-8.3,6.7-15,15-15s15,6.7,15,15C312.7,405.2,305.9,411.9,297.6,411.9z M297.6,387.8
				c-5,0-9,4.1-9,9s4.1,9,9,9s9-4.1,9-9S302.6,387.8,297.6,387.8z"/>
		</g>
		<g>
			<rect x="294.6" y="408.9" width="6" height="60.2"/>
		</g>
	</g>
</g>
</svg>
