<?xml version="1.0" encoding="utf-8"?>
<!-- Generator: Adobe Illustrator 18.0.0, SVG Export Plug-In . SVG Version: 6.00 Build 0)  -->
<!DOCTYPE svg PUBLIC "-//W3C//DTD SVG 1.1//EN" "http://www.w3.org/Graphics/SVG/1.1/DTD/svg11.dtd">
<svg version="1.1" xmlns="http://www.w3.org/2000/svg" xmlns:xlink="http://www.w3.org/1999/xlink" x="0px" y="0px"
	 viewBox="83.3 327.2 428.7 434.1" enable-background="new 83.3 327.2 428.7 434.1" xml:space="preserve">
<g id="Calque_2">
	<circle fill="#FFFFFF" stroke="#000000" stroke-width="7.0866" stroke-miterlimit="10" cx="297.6" cy="544.3" r="203.5"/>
	<g>
		<g>
			<path d="M327.9,550.4c-18.3,0-33.2,14.9-33.2,33.2s14.9,33.2,33.2,33.2s33.2-14.9,33.2-33.2S346.2,550.4,327.9,550.4z
				 M327.9,610.7c-15,0-27.1-12.2-27.1-27.1c0-15,12.2-27.1,27.1-27.1c15,0,27.1,12.2,27.1,27.1C355,598.5,342.9,610.7,327.9,610.7z
				"/>
			<path d="M348.1,569.4c-1.2-1.2-3.1-1.2-4.3,0l-22,22l-9.9-9.9c-1.2-1.2-3.1-1.2-4.3,0s-1.2,3.1,0,4.3l12.1,12.1
				c0.6,0.6,1.4,0.9,2.1,0.9c0.8,0,1.5-0.3,2.1-0.9l24.1-24.1C349.3,572.5,349.3,570.6,348.1,569.4z"/>
			<path d="M300.6,610.5h-57.3c-1.7,0-3-1.4-3-3V492.9c0-1.7,1.4-3,3-3h15.1v3c0,1.7,1.4,3,3,3h54.3c1.7,0,3-1.4,3-3v-3h15.1
				c1.7,0,3,1.4,3,3v48.2c0,1.7,1.4,3,3,3c1.7,0,3-1.4,3-3v-48.2c0-5-4.1-9-9-9h-15.6c-1.2-3.5-4.6-6-8.5-6h-10.7
				c-2.1-3.7-6.1-6-10.4-6c-4.3,0-8.3,2.4-10.4,6h-10.7c-3.9,0-7.2,2.5-8.5,6h-15.6c-5,0-9,4.1-9,9v114.6c0,5,4.1,9,9,9h57.3
				c1.7,0,3-1.4,3-3C303.6,611.8,302.2,610.5,300.6,610.5z M267.4,483.8H280c1.3,0,2.4-0.8,2.8-2c0.9-2.4,3.1-4,5.7-4
				c2.5,0,4.8,1.6,5.7,4c0.4,1.2,1.6,2,2.8,2h12.6c1.7,0,3,1.4,3,3v3h-48.2v-3C264.4,485.2,265.7,483.8,267.4,483.8z"/>
		</g>
		<path d="M273.9,531.7h-15c-2.1,0-3.7-1.7-3.7-3.7v-15c0-2.1,1.7-3.7,3.7-3.7h15c2.1,0,3.7,1.7,3.7,3.7v15
			C277.6,530.1,276,531.7,273.9,531.7z M260.4,526.5h12.1v-12.1h-12.1V526.5z"/>
		<path d="M273.9,561.8h-15c-2.1,0-3.7-1.7-3.7-3.7v-15c0-2.1,1.7-3.7,3.7-3.7h15c2.1,0,3.7,1.7,3.7,3.7v15
			C277.6,560.2,276,561.8,273.9,561.8z M260.4,556.6h12.1v-12.1h-12.1V556.6z"/>
		<path d="M273.9,591.9h-15c-2.1,0-3.7-1.7-3.7-3.7v-15c0-2.1,1.7-3.7,3.7-3.7h15c2.1,0,3.7,1.7,3.7,3.7v15
			C277.6,590.3,276,591.9,273.9,591.9z M260.4,586.7h12.1v-12.1h-12.1V586.7z"/>
	</g>
</g>
<g id="Calque_1" display="none">
	<g display="inline">
		<g>
			<path d="M303.7,584.8H184.6c-8.6,0-15.7-7-15.7-15.7v-81.5c0-8.6,7-15.7,15.7-15.7h119.1c8.6,0,15.7,7,15.7,15.7v81.5
				C319.4,577.7,312.4,584.8,303.7,584.8z M184.6,478.2c-5.2,0-9.4,4.2-9.4,9.4v81.5c0,5.2,4.2,9.4,9.4,9.4h119.1
				c5.2,0,9.4-4.2,9.4-9.4v-81.5c0-5.2-4.2-9.4-9.4-9.4H184.6z"/>
			<path d="M291.3,616.1c0,0-0.1,0-0.1,0h-87.8c-1.7,0-3.1-1.4-3.1-3.1c0-8.6,7-15.7,15.7-15.7h62.7c8.3,0,15.1,6.5,15.6,14.7
				c0.1,0.3,0.2,0.6,0.2,1C294.4,614.7,293,616.1,291.3,616.1z M207.1,609.8h80.4c-1.3-3.6-4.8-6.3-8.9-6.3h-62.7
				C211.8,603.6,208.4,606.2,207.1,609.8z"/>
			<path d="M316.3,559.7H172c-1.7,0-3.1-1.4-3.1-3.1c0-1.7,1.4-3.1,3.1-3.1h144.2c1.7,0,3.1,1.4,3.1,3.1
				C319.4,558.3,318,559.7,316.3,559.7z"/>
			<path d="M291.4,572.2c-1.7,0-3.2-1.4-3.2-3.1c0-1.7,1.4-3.1,3.1-3.1h0.1c1.7,0,3.1,1.4,3.1,3.1
				C294.5,570.8,293.1,572.2,291.4,572.2z"/>
			<path d="M316.3,490.7H172c-1.7,0-3.1-1.4-3.1-3.1s1.4-3.1,3.1-3.1h144.2c1.7,0,3.1,1.4,3.1,3.1S318,490.7,316.3,490.7z"/>
			<circle cx="247.3" cy="569.1" r="6.3"/>
			<path d="M241,603.6c-1.7,0-3.1-1.4-3.1-3.1v-18.8c0-1.7,1.4-3.1,3.1-3.1s3.1,1.4,3.1,3.1v18.8C244.1,602.2,242.7,603.6,241,603.6
				z"/>
			<path d="M253.6,603.6c-1.7,0-3.1-1.4-3.1-3.1v-18.8c0-1.7,1.4-3.1,3.1-3.1c1.7,0,3.1,1.4,3.1,3.1v18.8
				C256.7,602.2,255.3,603.6,253.6,603.6z"/>
		</g>
		<path d="M222.2,547.1h-12.5c-1.7,0-3.1-1.4-3.1-3.1v-12.5c0-1.7,1.4-3.1,3.1-3.1h12.5c1.7,0,3.1,1.4,3.1,3.1V544
			C225.3,545.7,223.9,547.1,222.2,547.1z M212.8,540.9h6.3v-6.3h-6.3V540.9z"/>
	</g>
	<g display="inline">
		<path fill="#FFFFFF" d="M343,614.1v-58.8c0-4.7-3.8-8.5-8.5-8.5h-98.7c-4.7,0-8.5,3.8-8.5,8.5v58.8c0,4.7,3.8,8.5,8.5,8.5h98.7
			C339.2,622.7,343,618.8,343,614.1z"/>
		<g>
			<path d="M232.2,555.4v7.3c0,0.7,0.5,1.2,1.2,1.2s1.2-0.5,1.2-1.2v-7.3c0-0.7-0.5-1.2-1.2-1.2S232.2,554.7,232.2,555.4z"/>
			<path d="M232.2,606.8v7.3c0,0.7,0.5,1.2,1.2,1.2s1.2-0.5,1.2-1.2v-7.3c0-0.7-0.5-1.2-1.2-1.2S232.2,606.2,232.2,606.8z"/>
			<path d="M343,614.1v-58.8c0-4.7-3.8-8.5-8.5-8.5h-98.7c-4.7,0-8.5,3.8-8.5,8.5v58.8c0,4.7,3.8,8.5,8.5,8.5h98.7
				C339.2,622.7,343,618.8,343,614.1z M340.6,555.4v58.8c0,3.4-2.7,6.1-6.1,6.1h-1.2v-71h1.2C337.8,549.3,340.6,552,340.6,555.4z
				 M239.5,620.2v-71h91.4v71H239.5z M235.8,620.2c-3.4,0-6.1-2.7-6.1-6.1v-58.8c0-3.4,2.7-6.1,6.1-6.1h1.2v71H235.8z"/>
			<path d="M335.7,599.5v2.4c0,0.7,0.5,1.2,1.2,1.2c0.7,0,1.2-0.5,1.2-1.2v-2.4c0-0.7-0.5-1.2-1.2-1.2
				C336.2,598.3,335.7,598.8,335.7,599.5z"/>
			<path d="M335.7,614.2c0,0.7,0.5,1.2,1.2,1.2c0.7,0,1.2-0.5,1.2-1.2v0c0-0.7-0.5-1.2-1.2-1.2C336.2,613,335.7,613.5,335.7,614.2z"
				/>
		</g>
	</g>
	<g display="inline">
		<path fill="#FFFFFF" d="M357.9,563.7h-30c-5.3,0-9.6,4.3-9.6,9.6V636c0,5.3,4.3,9.6,9.6,9.6h30c5.3,0,9.6-4.3,9.6-9.6v-62.8
			C367.4,567.9,363.1,563.7,357.9,563.7z"/>
		<g>
			<path d="M327.8,640.1h8.2c0.8,0,1.4-0.6,1.4-1.4c0-0.8-0.6-1.4-1.4-1.4h-8.2c-0.8,0-1.4,0.6-1.4,1.4
				C326.4,639.5,327.1,640.1,327.8,640.1z"/>
			<path d="M349.7,640.1h8.2c0.8,0,1.4-0.6,1.4-1.4c0-0.8-0.6-1.4-1.4-1.4h-8.2c-0.8,0-1.4,0.6-1.4,1.4
				C348.3,639.5,348.9,640.1,349.7,640.1z"/>
			<path d="M357.9,563.7h-30c-5.3,0-9.6,4.3-9.6,9.6V636c0,5.3,4.3,9.6,9.6,9.6h30c5.3,0,9.6-4.3,9.6-9.6v-62.8
				C367.4,567.9,363.1,563.7,357.9,563.7z M327.8,566.4h30c3.8,0,6.8,3.1,6.8,6.8v1.4H321v-1.4C321,569.4,324,566.4,327.8,566.4z
				 M364.7,631.9H321v-54.6h43.7V631.9z M364.7,636c0,3.8-3.1,6.8-6.8,6.8h-30c-3.8,0-6.8-3.1-6.8-6.8v-1.4h43.7V636z"/>
			<path d="M341.5,571.8h2.7c0.8,0,1.4-0.6,1.4-1.4c0-0.8-0.6-1.4-1.4-1.4h-2.7c-0.8,0-1.4,0.6-1.4,1.4
				C340.1,571.2,340.7,571.8,341.5,571.8z"/>
			<path d="M357.9,571.8c0.8,0,1.4-0.6,1.4-1.4c0-0.8-0.6-1.4-1.4-1.4h0c-0.8,0-1.4,0.6-1.4,1.4
				C356.5,571.2,357.2,571.8,357.9,571.8z"/>
		</g>
	</g>
</g>
</svg>
