<?xml version="1.0" encoding="utf-8"?>
<!-- Generator: Adobe Illustrator 18.0.0, SVG Export Plug-In . SVG Version: 6.00 Build 0)  -->
<!DOCTYPE svg PUBLIC "-//W3C//DTD SVG 1.1//EN" "http://www.w3.org/Graphics/SVG/1.1/DTD/svg11.dtd">
<svg version="1.1" id="Calque_1" xmlns="http://www.w3.org/2000/svg" xmlns:xlink="http://www.w3.org/1999/xlink" x="0px" y="0px"
	 viewBox="0 0 239.2 29.4" enable-background="new 0 0 239.2 29.4" xml:space="preserve">
<g>
	<path fill="#FFFFFF" d="M0.9,22c0-0.8,0.1-1.6,0.4-2.3c0.3-0.7,0.6-1.3,1-1.7c0.4-0.5,0.9-0.8,1.5-1.1c0.6-0.3,1.2-0.5,1.8-0.7
		c0.6-0.1,1.2-0.2,1.8-0.2c1.3,0,2.4,0.2,3.5,0.6c1,0.4,1.9,1,2.5,1.7v-2.4c0-0.9-0.4-1.7-1.1-2.3c-0.8-0.6-1.8-0.9-3-0.9
		c-2,0-3.8,0.7-5.4,2.2l-1.9-3.5c2.2-2,4.9-3,8.2-3c1.1,0,2.2,0.1,3.1,0.4c0.9,0.2,1.8,0.6,2.6,1.2c0.8,0.5,1.4,1.3,1.8,2.2
		c0.4,1,0.7,2.1,0.7,3.4v12.1h-4.9v-2c-0.6,0.8-1.5,1.4-2.5,1.8c-1,0.4-2.2,0.6-3.4,0.6c-0.8,0-1.5-0.1-2.3-0.4
		c-0.8-0.3-1.4-0.6-2.1-1.1c-0.6-0.5-1.1-1.1-1.5-2S0.9,23,0.9,22z M6.9,20c-0.7,0.5-1,1.2-1,2s0.3,1.5,1,2c0.7,0.5,1.5,0.7,2.5,0.7
		c0.8,0,1.6-0.1,2.3-0.4c0.7-0.3,1.3-0.7,1.7-1.2v-2.3c-0.4-0.5-1-0.9-1.7-1.2c-0.7-0.3-1.5-0.4-2.3-0.4C8.4,19.3,7.5,19.5,6.9,20z"
		/>
	<path fill="#FFFFFF" d="M23.2,27.8V9h4.9v2.4c0.7-0.8,1.6-1.5,2.7-2c1.1-0.6,2.4-0.8,3.8-0.8c2,0,3.5,0.5,4.6,1.6
		c1,1.1,1.5,2.5,1.5,4.4v13.3h-4.9V16.4c0-1.2-0.3-2.1-0.9-2.7c-0.6-0.5-1.5-0.8-2.6-0.8c-0.9,0-1.7,0.2-2.5,0.6s-1.3,0.9-1.8,1.5
		v12.7H23.2z"/>
	<path fill="#FFFFFF" d="M45.7,27.8V9h4.9v2.4c0.7-0.8,1.6-1.5,2.7-2c1.1-0.6,2.4-0.8,3.8-0.8c2,0,3.5,0.5,4.6,1.6
		c1,1.1,1.5,2.5,1.5,4.4v13.3h-4.9V16.4c0-1.2-0.3-2.1-0.9-2.7c-0.6-0.5-1.5-0.8-2.6-0.8c-0.9,0-1.7,0.2-2.5,0.6s-1.3,0.9-1.8,1.5
		v12.7H45.7z"/>
	<path fill="#FFFFFF" d="M67.1,22c0-0.8,0.1-1.6,0.4-2.3c0.3-0.7,0.6-1.3,1-1.7c0.4-0.5,0.9-0.8,1.5-1.1c0.6-0.3,1.2-0.5,1.8-0.7
		c0.6-0.1,1.2-0.2,1.8-0.2c1.3,0,2.4,0.2,3.5,0.6c1,0.4,1.9,1,2.5,1.7v-2.4c0-0.9-0.4-1.7-1.1-2.3c-0.8-0.6-1.8-0.9-3-0.9
		c-2,0-3.8,0.7-5.4,2.2L68,11.5c2.2-2,4.9-3,8.2-3c1.1,0,2.2,0.1,3.1,0.4c0.9,0.2,1.8,0.6,2.6,1.2c0.8,0.5,1.4,1.3,1.8,2.2
		c0.4,1,0.7,2.1,0.7,3.4v12.1h-4.9v-2c-0.6,0.8-1.5,1.4-2.5,1.8c-1,0.4-2.2,0.6-3.4,0.6c-0.8,0-1.5-0.1-2.3-0.4
		c-0.8-0.3-1.4-0.6-2.1-1.1c-0.6-0.5-1.1-1.1-1.5-2S67.1,23,67.1,22z M73,20c-0.7,0.5-1,1.2-1,2s0.3,1.5,1,2
		c0.7,0.5,1.5,0.7,2.5,0.7c0.8,0,1.6-0.1,2.3-0.4c0.7-0.3,1.3-0.7,1.7-1.2v-2.3c-0.4-0.5-1-0.9-1.7-1.2c-0.7-0.3-1.5-0.4-2.3-0.4
		C74.5,19.3,73.7,19.5,73,20z"/>
	<path fill="#A3A2A2" d="M89.4,27.8V9h4.9v2.4c0.5-0.7,1.3-1.3,2.5-1.9c1.1-0.6,2.4-0.9,3.7-0.9c1.3,0,2.5,0.3,3.3,0.9
		c0.9,0.6,1.5,1.4,1.8,2.5c0.6-0.9,1.5-1.7,2.7-2.4c1.2-0.7,2.4-1,3.8-1c1.7,0,3.1,0.5,4.1,1.4c1,1,1.4,2.4,1.4,4.3v13.6h-4.9V15.9
		c0-0.9-0.2-1.7-0.7-2.2c-0.5-0.5-1.2-0.8-2.1-0.8c-0.8,0-1.5,0.2-2.2,0.6c-0.7,0.4-1.2,0.9-1.6,1.5v12.7H101V15.9c0-2-0.9-3-2.8-3
		c-0.8,0-1.5,0.2-2.2,0.6c-0.7,0.4-1.3,0.9-1.7,1.5v12.7H89.4z"/>
	<path fill="#A3A2A2" d="M122.9,6.1C122.3,5.5,122,4.8,122,4s0.3-1.5,0.9-2.1c0.6-0.6,1.3-0.9,2.1-0.9c0.8,0,1.5,0.3,2.1,0.9
		c0.6,0.6,0.9,1.3,0.9,2.1s-0.3,1.5-0.9,2.1C126.5,6.7,125.8,7,125,7C124.2,7,123.5,6.7,122.9,6.1z M122.5,27.8V9h4.9v18.8H122.5z"
		/>
	<path fill="#A3A2A2" d="M132.4,27.8V9h4.9v2.4c0.5-0.7,1.3-1.3,2.5-1.9c1.1-0.6,2.4-0.9,3.7-0.9c1.3,0,2.5,0.3,3.3,0.9
		c0.9,0.6,1.5,1.4,1.8,2.5c0.6-0.9,1.5-1.7,2.7-2.4c1.2-0.7,2.4-1,3.8-1c1.7,0,3.1,0.5,4.1,1.4c1,1,1.4,2.4,1.4,4.3v13.6h-4.9V15.9
		c0-0.9-0.2-1.7-0.7-2.2c-0.5-0.5-1.2-0.8-2.1-0.8c-0.8,0-1.5,0.2-2.2,0.6c-0.7,0.4-1.2,0.9-1.6,1.5v12.7H144V15.9c0-2-0.9-3-2.8-3
		c-0.8,0-1.5,0.2-2.2,0.6c-0.7,0.4-1.3,0.9-1.7,1.5v12.7H132.4z"/>
	<path fill="#A3A2A2" d="M165.5,23.3c-0.8-1.5-1.2-3.1-1.2-4.9s0.4-3.4,1.2-4.9c0.8-1.5,1.9-2.7,3.5-3.6c1.5-0.9,3.3-1.4,5.3-1.4
		c2,0,3.8,0.5,5.3,1.4c1.5,0.9,2.7,2.1,3.5,3.6c0.8,1.5,1.2,3.1,1.2,4.9s-0.4,3.4-1.2,4.9c-0.8,1.5-1.9,2.7-3.5,3.6
		c-1.5,0.9-3.3,1.4-5.3,1.4c-2,0-3.8-0.5-5.3-1.4C167.4,26,166.3,24.8,165.5,23.3z M169.5,18.4c0,1.5,0.4,2.8,1.3,3.9
		c0.9,1.1,2,1.6,3.5,1.6c1.5,0,2.7-0.5,3.5-1.6c0.9-1.1,1.3-2.4,1.3-3.9c0-1.5-0.4-2.8-1.3-3.9s-2-1.6-3.5-1.6
		c-1.5,0-2.7,0.5-3.5,1.6C169.9,15.5,169.5,16.8,169.5,18.4z"/>
	<path fill="#A3A2A2" d="M187.9,22.3V9h4.9v11.4c0,1.2,0.3,2.1,0.9,2.7c0.6,0.5,1.5,0.8,2.6,0.8c0.9,0,1.7-0.2,2.5-0.6
		c0.7-0.4,1.4-0.9,1.8-1.5V9h4.9v18.8h-4.9v-2.4c-0.7,0.8-1.7,1.5-2.8,2s-2.4,0.8-3.8,0.8c-2,0-3.5-0.5-4.6-1.6
		C188.4,25.7,187.9,24.2,187.9,22.3z"/>
	<path fill="#A3A2A2" d="M210.4,27.8V9h4.9v2.4c0.7-0.8,1.6-1.5,2.7-2c1.1-0.6,2.4-0.8,3.8-0.8c2,0,3.5,0.5,4.6,1.6
		c1,1.1,1.5,2.5,1.5,4.4v13.3h-4.9V16.4c0-1.2-0.3-2.1-0.9-2.7c-0.6-0.5-1.5-0.8-2.6-0.8c-0.9,0-1.7,0.2-2.5,0.6s-1.3,0.9-1.8,1.5
		v12.7H210.4z"/>
	<path fill="#A3A2A2" d="M233.3,6.1c-0.6-0.6-0.9-1.3-0.9-2.1s0.3-1.5,0.9-2.1c0.6-0.6,1.3-0.9,2.1-0.9c0.8,0,1.5,0.3,2.1,0.9
		c0.6,0.6,0.9,1.3,0.9,2.1s-0.3,1.5-0.9,2.1c-0.6,0.6-1.3,0.9-2.1,0.9C234.6,7,233.9,6.7,233.3,6.1z M232.9,27.8V9h4.9v18.8H232.9z"
		/>
</g>
</svg>
