<?xml version="1.0" encoding="utf-8"?>
<!-- Generator: Adobe Illustrator 18.0.0, SVG Export Plug-In . SVG Version: 6.00 Build 0)  -->
<!DOCTYPE svg PUBLIC "-//W3C//DTD SVG 1.1//EN" "http://www.w3.org/Graphics/SVG/1.1/DTD/svg11.dtd">
<svg version="1.1" id="Calque_1" xmlns="http://www.w3.org/2000/svg" xmlns:xlink="http://www.w3.org/1999/xlink" x="0px" y="0px"
	 viewBox="0 0 84.4 22.4" enable-background="new 0 0 84.4 22.4" xml:space="preserve">
<g>
	<g>
		<path fill="#FFFFFF" d="M0.9,15.1c0-0.8,0.1-1.6,0.4-2.3c0.3-0.7,0.6-1.3,1-1.7c0.4-0.5,0.9-0.8,1.5-1.1C4.4,9.6,5,9.4,5.6,9.2
			C6.2,9.1,6.8,9,7.4,9c1.3,0,2.4,0.2,3.5,0.6c1,0.4,1.9,1,2.5,1.7V8.9c0-0.9-0.4-1.7-1.1-2.3c-0.8-0.6-1.8-0.9-3-0.9
			c-2,0-3.8,0.7-5.4,2.2L1.9,4.6c2.2-2,4.9-3,8.2-3c1.1,0,2.2,0.1,3.1,0.4c0.9,0.2,1.8,0.6,2.6,1.2c0.8,0.5,1.4,1.3,1.8,2.2
			c0.4,1,0.7,2.1,0.7,3.4v12.1h-4.9v-2c-0.6,0.8-1.5,1.4-2.5,1.8c-1,0.4-2.2,0.6-3.4,0.6c-0.8,0-1.5-0.1-2.3-0.4
			c-0.8-0.3-1.4-0.6-2.1-1.1c-0.6-0.5-1.1-1.1-1.5-2S0.9,16.1,0.9,15.1z M6.9,13.1c-0.7,0.5-1,1.2-1,2s0.3,1.5,1,2
			c0.7,0.5,1.5,0.7,2.5,0.7c0.8,0,1.6-0.1,2.3-0.4c0.7-0.3,1.3-0.7,1.7-1.2V14c-0.4-0.5-1-0.9-1.7-1.2c-0.7-0.3-1.5-0.4-2.3-0.4
			C8.4,12.3,7.5,12.6,6.9,13.1z"/>
		<path fill="#FFFFFF" d="M23.2,20.9V2.1h4.9v2.4c0.7-0.8,1.6-1.5,2.7-2c1.1-0.6,2.4-0.8,3.8-0.8c2,0,3.5,0.5,4.6,1.6
			c1,1.1,1.5,2.5,1.5,4.4v13.3h-4.9V9.5c0-1.2-0.3-2.1-0.9-2.7C34.4,6.3,33.5,6,32.4,6c-0.9,0-1.7,0.2-2.5,0.6s-1.3,0.9-1.8,1.5
			v12.7H23.2z"/>
		<path fill="#FFFFFF" d="M45.7,20.9V2.1h4.9v2.4c0.7-0.8,1.6-1.5,2.7-2c1.1-0.6,2.4-0.8,3.8-0.8c2,0,3.5,0.5,4.6,1.6
			c1,1.1,1.5,2.5,1.5,4.4v13.3h-4.9V9.5c0-1.2-0.3-2.1-0.9-2.7C56.9,6.3,56,6,54.9,6c-0.9,0-1.7,0.2-2.5,0.6s-1.3,0.9-1.8,1.5v12.7
			H45.7z"/>
		<path fill="#FFFFFF" d="M67.1,15.1c0-0.8,0.1-1.6,0.4-2.3c0.3-0.7,0.6-1.3,1-1.7c0.4-0.5,0.9-0.8,1.5-1.1c0.6-0.3,1.2-0.5,1.8-0.7
			C72.3,9.1,72.9,9,73.6,9C74.8,9,76,9.2,77,9.6c1,0.4,1.9,1,2.5,1.7V8.9c0-0.9-0.4-1.7-1.1-2.3c-0.8-0.6-1.8-0.9-3-0.9
			c-2,0-3.8,0.7-5.4,2.2L68,4.6c2.2-2,4.9-3,8.2-3c1.1,0,2.2,0.1,3.1,0.4c0.9,0.2,1.8,0.6,2.6,1.2c0.8,0.5,1.4,1.3,1.8,2.2
			c0.4,1,0.7,2.1,0.7,3.4v12.1h-4.9v-2c-0.6,0.8-1.5,1.4-2.5,1.8c-1,0.4-2.2,0.6-3.4,0.6c-0.8,0-1.5-0.1-2.3-0.4
			c-0.8-0.3-1.4-0.6-2.1-1.1c-0.6-0.5-1.1-1.1-1.5-2S67.1,16.1,67.1,15.1z M73,13.1c-0.7,0.5-1,1.2-1,2s0.3,1.5,1,2
			c0.7,0.5,1.5,0.7,2.5,0.7c0.8,0,1.6-0.1,2.3-0.4c0.7-0.3,1.3-0.7,1.7-1.2V14c-0.4-0.5-1-0.9-1.7-1.2c-0.7-0.3-1.5-0.4-2.3-0.4
			C74.5,12.3,73.7,12.6,73,13.1z"/>
	</g>
</g>
</svg>
