<?xml version="1.0" encoding="utf-8"?>
<!-- Generator: Adobe Illustrator 18.0.0, SVG Export Plug-In . SVG Version: 6.00 Build 0)  -->
<!DOCTYPE svg PUBLIC "-//W3C//DTD SVG 1.1//EN" "http://www.w3.org/Graphics/SVG/1.1/DTD/svg11.dtd">
<svg version="1.1" id="Calque_1" xmlns="http://www.w3.org/2000/svg" xmlns:xlink="http://www.w3.org/1999/xlink" x="0px" y="0px"
	 viewBox="205.4 328.7 184.5 184.5" enable-background="new 205.4 328.7 184.5 184.5" xml:space="preserve">
<path fill="#FFFFFF" d="M297.6,513.2c-50.9,0-92.2-41.4-92.2-92.2s41.4-92.2,92.2-92.2s92.2,41.4,92.2,92.2S348.5,513.2,297.6,513.2
	z M297.6,335.8c-47,0-85.2,38.2-85.2,85.2c0,47,38.2,85.2,85.2,85.2c47,0,85.2-38.2,85.2-85.2C382.8,374,344.6,335.8,297.6,335.8z"
	/>
<g>
	<path fill="#FFFFFF" stroke="#FFFFFF" stroke-width="16" stroke-miterlimit="10" d="M297.6,420.9"/>
</g>
<g>
	<path fill="#FFFFFF" d="M297.6,447.2c-14.5,0-26.3-11.7-26.3-26.3c0-14.5,11.7-26.3,26.3-26.3c14.5,0,26.3,11.7,26.3,26.3
		C324.1,435.5,312.2,447.2,297.6,447.2z M297.6,400.4c-11.3,0-20.4,9.3-20.4,20.4s9.3,20.4,20.4,20.4c11.1,0,20.4-9.3,20.4-20.4
		S309,400.4,297.6,400.4z"/>
</g>
<g>
	<path fill="#FFFFFF" d="M297.6,483.4c-34.6,0-62.5-27.9-62.5-62.5s27.9-62.5,62.5-62.5s62.5,27.9,62.5,62.5
		C360.5,455.5,332.2,483.4,297.6,483.4z M297.6,363.7c-31.6,0-56.8,25.9-56.8,56.8s25.9,56.8,56.8,56.8s56.8-25.9,56.8-56.8
		S329.2,363.7,297.6,363.7z"/>
</g>
</svg>
