<?xml version="1.0" encoding="utf-8"?>
<!-- Generator: Adobe Illustrator 18.0.0, SVG Export Plug-In . SVG Version: 6.00 Build 0)  -->
<!DOCTYPE svg PUBLIC "-//W3C//DTD SVG 1.1//EN" "http://www.w3.org/Graphics/SVG/1.1/DTD/svg11.dtd">
<svg version="1.1" id="Calque_1" xmlns="http://www.w3.org/2000/svg" xmlns:xlink="http://www.w3.org/1999/xlink" x="0px" y="0px"
	 viewBox="208.9 332.2 177.4 177.4" enable-background="new 208.9 332.2 177.4 177.4" xml:space="preserve">
<circle fill="#FFFFFF" stroke="#000000" stroke-width="7.0866" stroke-miterlimit="10" cx="297.6" cy="420.9" r="88.7"/>
<g>
	<path fill="none" stroke="#000000" stroke-width="16" stroke-miterlimit="10" d="M297.6,420.9"/>
</g>
<g>
	<path d="M297.6,447.2c-14.5,0-26.3-11.7-26.3-26.3s11.7-26.3,26.3-26.3c14.5,0,26.3,11.7,26.3,26.3
		C324.1,435.5,312.2,447.2,297.6,447.2z M297.6,400.4c-11.3,0-20.4,9.3-20.4,20.4c0,11.1,9.3,20.4,20.4,20.4
		c11.1,0,20.4-9.3,20.4-20.4C318,409.7,309,400.4,297.6,400.4z"/>
</g>
<g>
	<path d="M297.6,483.4c-34.6,0-62.5-27.9-62.5-62.5s27.9-62.5,62.5-62.5s62.5,27.9,62.5,62.5C360.5,455.5,332.2,483.4,297.6,483.4z
		 M297.6,363.7c-31.6,0-56.8,25.9-56.8,56.8s25.9,56.8,56.8,56.8s56.8-25.9,56.8-56.8S329.2,363.7,297.6,363.7z"/>
</g>
</svg>
