<?xml version="1.0" encoding="utf-8"?>
<!-- Generator: Adobe Illustrator 18.0.0, SVG Export Plug-In . SVG Version: 6.00 Build 0)  -->
<!DOCTYPE svg PUBLIC "-//W3C//DTD SVG 1.1//EN" "http://www.w3.org/Graphics/SVG/1.1/DTD/svg11.dtd">
<svg version="1.1" id="Calque_1" xmlns="http://www.w3.org/2000/svg" xmlns:xlink="http://www.w3.org/1999/xlink" x="0px" y="0px"
	 viewBox="229 123.5 137.3 594.9" enable-background="new 229 123.5 137.3 594.9" xml:space="preserve">
<g>
	<g>
		
			<rect x="279" y="673.7" transform="matrix(0.7071 -0.7071 0.7071 0.7071 -384.6755 430.7535)" fill="#FFFFFF" width="97.3" height="12.1"/>
		
			<rect x="219" y="673.7" transform="matrix(-0.7071 -0.7071 0.7071 -0.7071 -23.7261 1349.6199)" fill="#FFFFFF" width="97.3" height="12.1"/>
	</g>
	<g>
		<path fill="#FFFFFF" stroke="#FFFFFF" stroke-width="16" stroke-miterlimit="10" d="M297.7,318"/>
	</g>
	<g>
		<g>
			<path fill="#FFFFFF" d="M297.7,186.2c-17.4,0-31.4-14-31.4-31.4s14-31.4,31.4-31.4s31.4,14,31.4,31.4
				C329.1,172,315.1,186.2,297.7,186.2z M297.7,135.8c-10.5,0-18.8,8.6-18.8,18.8s8.6,18.8,18.8,18.8c10.2,0,18.8-8.6,18.8-18.8
				S308,135.8,297.7,135.8z"/>
		</g>
		<g>
			<rect x="291.5" y="179.8" fill="#FFFFFF" width="12.5" height="525"/>
		</g>
	</g>
</g>
</svg>
