<?xml version="1.0" encoding="utf-8"?>
<!-- Generator: Adobe Illustrator 18.0.0, SVG Export Plug-In . SVG Version: 6.00 Build 0)  -->
<!DOCTYPE svg PUBLIC "-//W3C//DTD SVG 1.1//EN" "http://www.w3.org/Graphics/SVG/1.1/DTD/svg11.dtd">
<svg version="1.1" id="Calque_1" xmlns="http://www.w3.org/2000/svg" xmlns:xlink="http://www.w3.org/1999/xlink" x="0px" y="0px"
	 viewBox="155.4 388.1 284.6 65.7" enable-background="new 155.4 388.1 284.6 65.7" xml:space="preserve">
<g>
	<g>
		<rect x="398.2" y="403.7" transform="matrix(0.7071 0.7071 -0.7071 0.7071 410.9303 -178.9054)" width="46.5" height="5.8"/>
		<rect x="398.2" y="432.4" transform="matrix(0.7071 -0.7071 0.7071 0.7071 -184.3759 425.4893)" width="46.5" height="5.8"/>
	</g>
	<g>
		<path fill="none" stroke="#000000" stroke-width="16" stroke-miterlimit="10" d="M248.5,420.9"/>
	</g>
	<g>
		<g>
			<path d="M185.5,420.9c0,8.3-6.7,15-15,15c-8.3,0-15-6.7-15-15s6.7-15,15-15C178.7,405.9,185.5,412.6,185.5,420.9z M161.4,420.9
				c0,5,4.1,9,9,9s9-4.1,9-9s-4.1-9-9-9S161.4,416,161.4,420.9z"/>
		</g>
		<g>
			<rect x="182.4" y="417.9" width="251" height="6"/>
		</g>
	</g>
</g>
</svg>
