<?xml version="1.0" encoding="utf-8"?>
<!-- Generator: Adobe Illustrator 18.0.0, SVG Export Plug-In . SVG Version: 6.00 Build 0)  -->
<!DOCTYPE svg PUBLIC "-//W3C//DTD SVG 1.1//EN" "http://www.w3.org/Graphics/SVG/1.1/DTD/svg11.dtd">
<svg version="1.1" id="Calque_1" xmlns="http://www.w3.org/2000/svg" xmlns:xlink="http://www.w3.org/1999/xlink" x="0px" y="0px"
	 viewBox="83.3 327.2 428.7 434.1" enable-background="new 83.3 327.2 428.7 434.1" xml:space="preserve">
<circle fill="#FFFFFF" stroke="#000000" stroke-width="7.0866" stroke-miterlimit="10" cx="297.6" cy="544.3" r="203.5"/>
<g>
	<path d="M358.1,574.5h-121c-5,0-9.1-4.1-9.1-9.1c0-5,4.1-9.1,9.1-9.1h121c5,0,9.1,4.1,9.1,9.1C367.2,570.4,363.1,574.5,358.1,574.5
		z M237.2,562.4c-1.7,0-3,1.4-3,3s1.4,3,3,3h121c1.7,0,3-1.4,3-3s-1.4-3-3-3H237.2z"/>
	<path d="M358.1,562.4h-121c-1.7,0-3-1.4-3-3v-72.6c0-1.7,1.4-3,3-3h48.4c1.7,0,3,1.4,3,3c0,1.7,1.4,3,3,3h12.1c1.7,0,3-1.4,3-3
		c0-1.7,1.4-3,3-3h48.4c1.7,0,3,1.4,3,3v72.6C361.2,561,359.8,562.4,358.1,562.4z M240.2,556.3h114.9v-66.5h-42.9
		c-1.3,3.5-4.6,6-8.6,6h-12.1c-3.9,0-7.3-2.5-8.6-6h-42.9V556.3z"/>
	<path d="M303.7,495.9h-12.1c-5,0-9.1-4.1-9.1-9.1s4.1-9.1,9.1-9.1h12.1c5,0,9.1,4.1,9.1,9.1S308.7,495.9,303.7,495.9z M291.6,483.8
		c-1.7,0-3,1.4-3,3c0,1.7,1.4,3,3,3h12.1c1.7,0,3-1.4,3-3c0-1.7-1.4-3-3-3H291.6z"/>
	<path d="M267.4,610.8c-0.5,0-0.9-0.1-1.3-0.3c-1.5-0.8-2.1-2.6-1.4-4.1l18.1-36.3c0.8-1.5,2.6-2.1,4.1-1.4c1.5,0.8,2.1,2.6,1.4,4.1
		l-18.1,36.3C269.6,610.2,268.5,610.8,267.4,610.8z"/>
	<path d="M327.9,610.8c-1.1,0-2.2-0.6-2.7-1.7L307,572.8c-0.8-1.5-0.1-3.3,1.4-4.1c1.5-0.7,3.3-0.1,4.1,1.4l18.1,36.3
		c0.8,1.5,0.1,3.3-1.4,4.1C328.8,610.7,328.3,610.8,327.9,610.8z"/>
	<path d="M297.6,616.8c-1.7,0-3-1.4-3-3v-42.3c0-1.7,1.4-3,3-3s3,1.4,3,3v42.3C300.7,615.5,299.3,616.8,297.6,616.8z"/>
	<path d="M297.6,483.8c-1.7,0-3-1.4-3-3v-6c0-1.7,1.4-3,3-3s3,1.4,3,3v6C300.7,482.4,299.3,483.8,297.6,483.8z"/>
</g>
</svg>
