<?xml version="1.0" encoding="utf-8"?>
<!-- Generator: Adobe Illustrator 18.0.0, SVG Export Plug-In . SVG Version: 6.00 Build 0)  -->
<!DOCTYPE svg PUBLIC "-//W3C//DTD SVG 1.1//EN" "http://www.w3.org/Graphics/SVG/1.1/DTD/svg11.dtd">
<svg version="1.1" id="Calque_1" xmlns="http://www.w3.org/2000/svg" xmlns:xlink="http://www.w3.org/1999/xlink" x="0px" y="0px"
	 viewBox="0 0 841.9 595.3" enable-background="new 0 0 841.9 595.3" xml:space="preserve">
<path d="M266.2,428.6h190.5h47.6h23.8c19.5,0,35.7-16.2,35.7-35.7c0-4.8-1-9-2.4-13.3c15.2-4.3,26.2-18.1,26.2-34.3
	c0-4.8-1-9-2.4-13.3c15.2-4.3,26.2-18.1,26.2-34.3c0-9-3.3-17.6-9-23.8c5.7-6.2,9-14.8,9-23.8c0-19.5-16.2-35.7-35.7-35.7h-95.2
	c-3.8,0-7.6,0.5-11,1.9c1.4-11,4.8-21.9,10-32.4c8.1-17.1,12.9-36.2,12.9-55.7V83.3c0-19.5-16.2-35.7-35.7-35.7
	s-35.7,16.2-35.7,35.7c0,29-8.1,57.6-22.9,82.4l-34.8,57.6c-5.2,9-15.2,14.8-25.7,14.8h-71.4c-19.5,0-35.7,16.2-35.7,35.7v119.1
	C230.5,412.4,246.6,428.6,266.2,428.6z M528.1,404.8h-23.8h-47.6c-6.7,0-11.9-5.2-11.9-11.9S450,381,456.7,381h71.4
	c6.7,0,11.9,5.2,11.9,11.9S534.8,404.8,528.1,404.8z M551.9,357.2h-23.8h-71.4c-6.7,0-11.9-5.2-11.9-11.9s5.2-11.9,11.9-11.9h95.2
	c6.7,0,11.9,5.2,11.9,11.9S558.6,357.2,551.9,357.2z M575.7,309.5h-23.8h-95.2c-6.7,0-11.9-5.2-11.9-11.9s5.2-11.9,11.9-11.9h23.8
	h95.2c6.7,0,11.9,5.2,11.9,11.9S582.4,309.5,575.7,309.5z M480.5,238.1h95.2c6.7,0,11.9,5.2,11.9,11.9c0,6.7-5.2,11.9-11.9,11.9
	h-95.2c-6.7,0-11.9-5.2-11.9-11.9C468.6,243.4,473.8,238.1,480.5,238.1z M254.3,273.8c0-6.7,5.2-11.9,11.9-11.9h71.4
	c19,0,36.7-10,46.2-26.2l34.8-57.6c17.1-28.6,26.2-61.4,26.2-94.8c0-6.7,5.2-11.9,11.9-11.9s11.9,5.2,11.9,11.9v44.8
	c0,15.7-3.8,31-10.5,45.2c-8.6,17.1-13.3,36.2-13.3,55.7v21c0,4.8,1,9,2.4,13.3c-14.8,3.8-26.2,17.6-26.2,34.3c0,9,3.3,17.6,9,23.8
	c-5.7,6.2-9,14.8-9,23.8c0,9,3.3,17.6,9,23.8c-5.7,6.2-9,14.8-9,23.8c0,4.3,1,8.1,1.9,11.9H266.2c-6.7,0-11.9-5.2-11.9-11.9V273.8z"
	/>
</svg>
