<?xml version="1.0" encoding="utf-8"?>
<!-- Generator: Adobe Illustrator 18.0.0, SVG Export Plug-In . SVG Version: 6.00 Build 0)  -->
<!DOCTYPE svg PUBLIC "-//W3C//DTD SVG 1.1//EN" "http://www.w3.org/Graphics/SVG/1.1/DTD/svg11.dtd">
<svg version="1.1" id="Calque_1" xmlns="http://www.w3.org/2000/svg" xmlns:xlink="http://www.w3.org/1999/xlink" x="0px" y="0px"
	 viewBox="0 0 430.4 180.6" enable-background="new 0 0 430.4 180.6" xml:space="preserve">
<g>
	<g>
		<path fill="#FFFFFF" stroke="#FFFFFF" stroke-width="16" stroke-miterlimit="10" d="M80.6,98"/>
	</g>
	<g>
		<path fill="#FFFFFF" d="M99,174.7c-44.3,0-80.2-36-80.2-80.2s36-80.2,80.2-80.2s80.2,36,80.2,80.2S143.3,174.7,99,174.7z M99,27.2
			c-37.1,0-67.3,30.2-67.3,67.3s30.2,67.3,67.3,67.3s67.3-30.2,67.3-67.3S136.1,27.2,99,27.2z"/>
		<g>
			<path fill="#FFFFFF" d="M99,117.3c-12.6,0-22.9-10.2-22.9-22.9c0-12.6,10.2-22.9,22.9-22.9c12.6,0,22.9,10.2,22.9,22.9
				C122.1,107.1,111.7,117.3,99,117.3z M99,76.6c-9.8,0-17.7,8.1-17.7,17.7s8.1,17.7,17.7,17.7s17.7-8.1,17.7-17.7
				S108.9,76.6,99,76.6z"/>
		</g>
		<g>
			<path fill="#FFFFFF" d="M99,148.8c-30.1,0-54.4-24.3-54.4-54.4S68.9,40.1,99,40.1s54.4,24.3,54.4,54.4
				C153.7,124.5,129.1,148.8,99,148.8z M99,44.7c-27.5,0-49.4,22.5-49.4,49.4s22.5,49.4,49.4,49.4s49.4-22.5,49.4-49.4
				S126.5,44.7,99,44.7z"/>
		</g>
	</g>
	<rect x="170.9" y="5.8" fill="#FFFFFF" width="11.7" height="170.8"/>
</g>
<g>
	<rect x="227.2" y="5.8" fill="#FFFFFF" width="11.7" height="170.8"/>
	<rect x="316.4" y="5.8" fill="#FFFFFF" width="11.7" height="170.8"/>
	<polygon fill="#FFFFFF" points="328.1,176.6 309.5,176.6 228.8,5.8 247.4,5.8 	"/>
	<polygon fill="#FFFFFF" points="415.7,176.6 397.1,176.6 316.4,5.8 335,5.8 	"/>
</g>
</svg>
